<svg width="512" height="512" viewBox="0 0 512 512" fill="none" xmlns="http://www.w3.org/2000/svg">
<path d="M259.274 52.0164C253.642 51.9419 248.031 52.1237 242.415 52.5132C197.487 55.6295 153.592 73.6011 118.599 105.841C48.6131 170.321 32.6535 274.958 80.276 357.346C125.759 436.033 217.827 474.489 305.116 453.005C310.766 456.901 317.465 458.992 324.328 459.001C342.779 458.986 357.834 444.225 358.213 425.778V425.746C358.226 425.526 358.236 425.304 358.245 425.083C358.237 424.818 358.226 424.553 358.213 424.288V340.32H426.049V391.164C407.33 391.182 392.164 406.363 392.164 425.082C392.164 443.814 407.35 459 426.082 459C444.533 458.985 459.589 444.224 459.967 425.777C459.983 425.546 459.994 425.313 460 425.082V323.295C459.991 320.546 459.314 317.84 458.027 315.411C456.74 312.981 454.882 310.901 452.613 309.35C475.232 226.983 443.944 137.79 372.356 88.1855C338.135 64.4747 298.693 52.5369 259.274 52.0164ZM258.81 85.8675C291.628 86.3203 324.498 96.3059 353.079 116.109C414.624 158.753 440.469 236.02 418.265 306.401H341.32C331.955 306.365 324.332 313.928 324.295 323.295V391.164C306.952 391.188 292.421 404.29 290.609 421.538C219.712 436.137 146.596 404.112 109.723 340.319C69.9494 271.512 83.1699 184.603 141.62 130.75C174.498 100.458 216.615 85.286 258.81 85.8675ZM256.426 187.722C219.161 187.722 188.721 218.162 188.721 255.427C188.721 292.691 219.161 323.296 256.426 323.296C293.69 323.296 324.295 292.691 324.295 255.427C324.295 218.162 293.689 187.722 256.426 187.722ZM256.426 221.64C275.359 221.64 290.343 236.492 290.343 255.426C290.343 274.359 275.358 289.343 256.426 289.343C237.493 289.343 222.64 274.358 222.64 255.426C222.64 236.493 237.492 221.64 256.426 221.64Z" fill="white"/>
</svg>
