<svg width="512" height="512" viewBox="0 0 512 512" fill="none" xmlns="http://www.w3.org/2000/svg">
<path d="M169.714 139.786C169.714 122.621 174.804 105.842 184.34 91.5702C193.876 77.2984 207.431 66.1748 223.289 59.6062C239.147 53.0376 256.596 51.319 273.431 54.6676C290.266 58.0162 305.73 66.2818 317.867 78.419C330.004 90.5562 338.269 106.02 341.618 122.855C344.967 139.689 343.248 157.139 336.679 172.997C330.111 188.855 318.987 202.409 304.716 211.945C290.444 221.482 273.665 226.571 256.5 226.571C233.483 226.571 211.409 217.428 195.133 201.153C178.858 184.877 169.714 162.803 169.714 139.786ZM453.648 273.146C451.968 271.787 450.004 270.822 447.901 270.321C445.799 269.82 443.611 269.797 441.498 270.254L409.677 276.907L325.35 294.698C322.034 295.374 319.059 297.192 316.945 299.835C314.831 302.478 313.71 305.779 313.779 309.162V386.98C310.587 386.342 307.342 386.003 304.087 385.968C294.387 385.373 284.845 388.647 277.553 395.072C270.26 401.497 265.811 410.55 265.179 420.248C265.141 423.346 265.63 426.427 266.625 429.361C269.428 436.952 274.562 443.462 281.292 447.957C288.021 452.452 296.001 454.702 304.087 454.384C312.253 454.721 320.313 452.449 327.101 447.898C333.888 443.347 339.05 436.753 341.839 429.071C342.691 426.5 343.178 423.823 343.286 421.116V320.734L430.071 302.364V372.516C426.798 371.758 423.451 371.37 420.091 371.359C410.39 370.764 400.849 374.038 393.556 380.463C386.264 386.888 381.814 395.941 381.182 405.639C381.234 410.089 382.228 414.478 384.098 418.517C385.967 422.555 388.671 426.152 392.03 429.071C399.712 436.013 409.739 439.786 420.091 439.63C430.433 439.729 440.44 435.964 448.152 429.071C451.529 426.136 454.243 422.516 456.114 418.451C457.984 414.386 458.968 409.969 459 405.495V284.429C459.007 282.268 458.53 280.133 457.604 278.18C456.678 276.228 455.326 274.508 453.648 273.146ZM252.016 429.071C251.307 426.087 250.967 423.026 251.004 419.959C251.539 407.178 256.866 395.067 265.925 386.035C274.984 377.003 287.11 371.712 299.893 371.214V308.729C299.75 301.981 301.97 295.396 306.17 290.113C310.37 284.83 316.285 281.182 322.891 279.8L395.212 264.613C363.62 242.438 326.684 229.093 288.215 225.954C249.745 222.814 211.134 229.994 176.365 246.752C141.595 263.511 111.925 289.241 90.4157 321.29C68.9061 353.338 56.3354 390.545 54 429.071V443.536C54 447.372 55.5239 451.051 58.2365 453.764C60.9491 456.476 64.6281 458 68.4643 458H270.964C261.265 451.055 254.507 440.738 252.016 429.071Z" fill="black"/>
</svg>
