<svg width="512" height="512" viewBox="0 0 512 512" fill="none" xmlns="http://www.w3.org/2000/svg">
<path d="M412.709 99.6114H266.162C262.706 91.1573 256.813 83.9225 249.232 78.8276C241.652 73.7326 232.727 71.0079 223.594 71H93.9702C81.7782 71 70.0855 75.8433 61.4644 84.4644C52.8433 93.0855 48 104.778 48 116.97V157.096C54.4362 149.851 62.3354 144.052 71.1765 140.082C80.0177 136.113 89.5999 134.063 99.2913 134.067H412.709C422.4 134.063 431.982 136.113 440.823 140.082C449.665 144.052 457.564 149.851 464 157.096V150.99C464 122.64 441.059 99.6114 412.709 99.6114Z" fill="black"/>
<path d="M412.691 146.819H99.3348C92.5969 146.819 85.9249 148.146 79.6998 150.725C73.4748 153.303 67.8185 157.083 63.0541 161.847C58.2896 166.612 54.5103 172.268 51.9318 178.493C49.3533 184.718 48.0261 191.39 48.0261 198.128V389.38C48.0261 402.988 53.4318 416.038 63.0541 425.661C72.6763 435.283 85.7269 440.689 99.3348 440.689H412.691C419.429 440.689 426.101 439.361 432.326 436.783C438.551 434.204 444.208 430.425 448.972 425.661C453.736 420.896 457.516 415.24 460.094 409.015C462.673 402.79 464 396.118 464 389.38V198.128C464 191.39 462.673 184.718 460.094 178.493C457.516 172.268 453.736 166.612 448.972 161.847C444.208 157.083 438.551 153.303 432.326 150.725C426.101 148.146 419.429 146.819 412.691 146.819ZM327.049 248.181L324.432 331.573V332.707H324.345C323.56 341.517 313.266 348.931 300.356 349.629C283.32 350.658 270.663 338.272 270.262 330.177C269.739 320.582 280.555 312.12 294.338 311.422C297.652 311.248 300.88 311.51 303.846 312.12L305.677 251.408L234.062 262.05L231.27 351.984V353.118H231.183C230.398 362.19 219.93 369.779 206.584 370.477C194.433 371.114 176.481 361.492 175.879 350.676C175.356 340.732 186.434 332.183 200.565 331.398C204.142 331.224 207.544 331.485 210.684 332.27C213.885 229.252 213.275 251.984 213.563 242.947C213.737 235.968 218.971 230.124 225.862 229.077C310.187 216.568 307.117 216.865 308.905 216.865C316.084 216.865 327.79 225.326 327.485 235.183L327.049 248.181Z" fill="black"/>
</svg>
